<svg width="56" height="56" viewBox="0 0 56 56" fill="none" xmlns="http://www.w3.org/2000/svg">
<circle r="28" transform="matrix(-1 0 0 1 28 28)" fill="#18191D"/>
<path d="M20.2408 27.1768L34.1167 13.3393C34.5713 12.8861 35.3074 12.8869 35.7612 13.3416C36.2148 13.7962 36.2136 14.5327 35.7589 14.9861L22.7089 28.0001L35.7594 41.0139C36.214 41.4674 36.2152 42.2034 35.7617 42.6581C35.5342 42.886 35.2361 43 34.9381 43C34.6408 43 34.3439 42.8868 34.1168 42.6604L20.2408 28.8233C20.0218 28.6054 19.899 28.309 19.899 28.0001C19.899 27.6911 20.0222 27.395 20.2408 27.1768Z" fill="white"/>
</svg>
