<svg width="24" height="24" viewBox="0 0 24 24" fill="none" xmlns="http://www.w3.org/2000/svg">
<g clip-path="url(#clip0_1_2202)">
<path d="M4.04999 10.9999C4.30287 9.07068 5.25021 7.29972 6.71467 6.01856C8.17912 4.73741 10.0603 4.03389 12.0061 4.03971C13.9518 4.04553 15.8287 4.76028 17.2855 6.05017C18.7423 7.34006 19.679 9.11666 19.9204 11.0474C20.1617 12.9781 19.6911 14.9306 18.5967 16.5394C17.5022 18.1482 15.859 19.303 13.9745 19.7876C12.0901 20.2722 10.0936 20.0534 8.35886 19.1721C6.6241 18.2909 5.26999 16.8076 4.54999 14.9999M4.04999 19.9999V14.9999H9.04999" stroke="black" stroke-width="1.5" stroke-linecap="round" stroke-linejoin="round"/>
<path d="M19.9212 11.0474C20.1625 12.9781 19.6919 14.9306 18.5975 16.5394C17.503 18.1482 15.8598 19.303 13.9753 19.7876C12.0909 20.2722 10.0944 20.0533 8.35966 19.1721C6.6249 18.2908 5.27078 16.8076 4.55078 14.9999M4.05078 19.9999V14.9999H9.05078" stroke="black" stroke-width="1.5" stroke-linecap="round" stroke-linejoin="round"/>
</g>
<defs>
<clipPath id="clip0_1_2202">
<rect width="24" height="24" fill="white"/>
</clipPath>
</defs>
</svg>
